<svg width="1324" height="761" viewBox="0 0 1324 761" fill="none" xmlns="http://www.w3.org/2000/svg">
<path d="M502.933 50.2719C484.533 78.2719 459.6 116.139 447.467 134.539C378.667 239.072 336.133 305.205 337.067 305.872C337.6 306.272 353.733 306.405 373.067 306.139L408 305.739L411.2 300.805C412.8 298.139 424.4 278.405 436.933 257.205C486.933 171.872 538.533 84.2719 539.2 83.6053C539.333 83.4719 544.933 90.272 551.467 98.9386C558.133 107.472 574.267 128.272 587.467 145.205C608.8 172.539 620 186.672 658.933 235.739C664.667 242.939 669.333 249.339 669.333 250.005C669.333 250.672 630.933 251.205 577.6 251.205H485.867L480 259.472C459.867 288.539 448.267 305.872 449.067 305.872C476.533 306.139 779.333 305.739 779.6 305.339C780.4 304.539 776 298.939 722 231.739C668.133 164.672 647.067 138.405 640.8 130.539C638.533 127.739 635.067 123.472 633.2 121.205C628.133 115.339 566.8 37.3386 551.6 17.6053C544.533 8.27196 538.133 0.405286 537.467 0.00528553C536.8 -0.394714 521.333 22.1386 502.933 50.2719Z" fill="#0f766e"/>
<path d="M592 1.33853C592 2.4052 601.467 13.3385 619.333 33.3385C625.867 40.6719 637.6 53.8719 645.467 62.6719C653.2 71.3385 673.867 94.6719 691.467 114.405C708.933 134.139 726 153.472 729.333 157.205C737.067 166.272 798 234.005 808.8 245.739C810.267 247.339 810.8 247.339 812.8 245.739C816.133 242.939 863.6 192.272 904 148.005L939.333 109.472L939.733 207.605L940 305.872H962.133H984.4L983.867 153.205C983.467 33.0719 982.933 0.53854 981.733 0.805206C980.8 1.07187 942.4 38.8052 896.4 84.8052L812.667 168.405L764.533 118.805C738.133 91.4719 701.6 53.7385 683.333 34.8052L650.267 0.538544H621.067C605.067 0.538544 592 0.938531 592 1.33853Z" fill="#0f766e"/>
<path d="M31.4667 436.805C25.0667 451.205 10.5333 482.272 5.33333 492.539C2.4 498.405 0 503.472 0 503.872C0 504.272 4 504.539 9.06667 504.539H18L21.4667 496.139L24.8 487.872H45.4667H66L69.8667 496.139L73.8667 504.539H82.9333C87.8667 504.539 92 504.139 92 503.739C92 503.339 91.0667 501.339 90 499.472C87.6 495.205 67.4667 451.472 62 438.805L58.1333 429.872H46.2667H34.5333L31.4667 436.805ZM52.9333 456.139C56.2667 463.339 59.4667 470.539 60.1333 472.139L61.3333 475.205H46H30.8L36 464.005C38.8 457.872 42.1333 450.672 43.2 448.005C44.2667 445.339 45.6 443.205 46 443.205C46.4 443.205 49.6 449.072 52.9333 456.139Z" fill="#0f766e"/>
<path d="M116 467.205V504.539H148H180V497.472V490.539L156.667 490.939L133.333 491.339V460.672V429.872H124.667H116V467.205Z" fill="#0f766e"/>
<path d="M206.667 467.205V504.539H241.333H276V497.872V491.205H250H224V481.872V472.539H245.333H266.667V465.872V459.205H245.333H224V451.872V444.539H249.333H274.667V437.205V429.872H240.667H206.667V467.205Z" fill="#0f766e"/>
<path d="M304 430.539C304 430.939 310 438.805 317.467 448.005C324.8 457.205 330.533 465.472 330.267 466.272C329.867 467.205 322.667 475.739 314.133 485.472C305.6 495.205 298.667 503.472 298.667 503.872C298.667 504.272 303.333 504.539 309.067 504.539L319.333 504.405L329.867 491.205C335.733 483.872 340.8 477.872 341.2 478.005C341.6 478.005 346.667 484.005 352.4 491.339L362.933 504.539H373.467C379.2 504.539 384 504.272 384 503.872C384 503.472 376.667 494.805 367.733 484.405C356.4 471.072 352 464.939 352.8 463.739C353.467 462.805 359.867 455.205 367.067 446.805C374.133 438.405 380 431.205 380 430.672C380 430.272 375.6 429.872 370.267 429.872H360.4L350.8 441.872L341.2 454.005L337.867 449.205C336.133 446.539 332.267 441.205 329.2 437.205L323.733 429.872H313.867C308.4 429.872 304 430.139 304 430.539Z" fill="#0f766e"/>
<path d="M501.333 467.205V504.539H509.467H517.6L517.2 480.005C516.933 466.405 517.067 455.072 517.467 454.672C517.867 454.272 523.467 462.272 530.133 472.539C541.867 490.805 542.133 491.072 546.933 491.205C552.267 491.205 550.4 493.472 569.2 464.672L577.333 452.272V478.405V504.539H585.333H593.333V467.205V429.872H584.133H575.067L561.2 450.672C548 470.539 547.333 471.339 545.333 468.805C544.267 467.339 538 458.005 531.6 448.005L519.867 429.872H510.533H501.333V467.205Z" fill="#0f766e"/>
<path d="M649.467 435.472C648.133 438.672 641.733 452.272 635.333 465.872C628.933 479.472 622.267 493.739 620.533 497.472L617.333 504.539H626.4H635.467L638.933 496.139L642.4 487.872H662.8H683.333L687.2 496.139L691.2 504.539H700.267C708.533 504.539 710.8 503.739 708.533 501.472C708.133 501.072 700.4 484.939 691.333 465.605L675.067 430.539L663.467 430.139L652 429.739L649.467 435.472ZM671.2 459.472L678.4 474.539L670.4 474.939C666.133 475.205 659.333 475.205 655.467 474.939L648.533 474.539L655.467 459.472C659.333 451.339 662.933 444.539 663.333 444.539C663.867 444.539 667.333 451.339 671.2 459.472Z" fill="#0f766e"/>
<path d="M733.333 467.205V504.539H741.333H749.333V478.139L749.467 451.872L754.667 457.872C757.6 461.205 767.6 473.072 776.933 484.139L794 504.539H801.733H809.333V467.205V429.739L801.867 430.139L794.4 430.539L794.533 453.205C794.533 465.605 794.133 476.939 793.467 478.405C792.667 480.672 792 480.272 788.533 475.605C786.4 472.672 777.2 461.205 768 450.139L751.333 429.872H742.4H733.333V467.205Z" fill="#0f766e"/>
<path d="M842.667 458.272C842.667 485.339 842.8 487.072 845.733 492.672C848 497.072 850.4 499.339 855.333 501.739C861.2 504.672 863.467 505.072 879.867 505.072C896.667 505.205 898.533 504.939 904.533 501.872C916.533 495.872 916.667 495.472 917.067 460.405L917.467 429.872H909.6H901.6L901.067 457.339L900.667 484.805L897.067 487.872C890.133 493.739 869.067 493.739 863.067 487.739C860 484.672 860 484.139 860 457.205V429.872H851.333H842.667V458.272Z" fill="#0f766e"/>
<path d="M943.733 433.472C945.067 435.605 952.667 446.272 960.4 457.339L974.667 477.605V491.072V504.539H982.667H990.667V490.005V475.605L1007.33 453.339C1016.53 441.072 1024 430.805 1024 430.539C1024 430.139 1019.6 429.872 1014.13 429.872H1004.4L993.867 445.205C988 453.605 982.933 460.405 982.4 460.539C982 460.539 976.933 453.605 971.333 445.205L961.2 429.872H951.2H941.2L943.733 433.472Z" fill="#0f766e"/>
<path d="M1050.67 430.139C1050.67 430.405 1050.53 447.205 1050.27 467.605L1050 504.539H1081.07H1112V497.472V490.539H1089.73H1067.33L1066.93 460.139L1066.67 429.872H1058.67C1054.27 429.872 1050.67 430.005 1050.67 430.139Z" fill="#0f766e"/>
<path d="M1150 432.405C1143.87 435.205 1139.47 439.605 1137.47 444.939C1136.67 447.072 1136 457.472 1136 468.139C1136 490.405 1137.33 494.672 1145.47 500.139C1152.27 504.672 1167.2 506.272 1186.13 504.672C1197.6 503.605 1201.07 502.805 1205.2 500.139C1213.47 494.672 1214.67 490.405 1214.67 468.005C1214.67 446.139 1213.6 441.872 1206.8 436.139C1200.67 430.939 1194.8 429.872 1174 429.872C1158.67 429.872 1154.4 430.405 1150 432.405ZM1193.07 446.672C1197.73 449.739 1198.93 454.672 1198.4 470.272C1198 484.272 1197.87 484.939 1194.27 488.005C1190.8 490.939 1189.47 491.205 1175.33 491.205C1161.2 491.205 1159.87 490.939 1156.4 488.005C1152.67 484.805 1152.67 484.672 1152.67 468.005C1152.67 449.205 1153.73 446.805 1162.8 444.539C1169.2 442.805 1189.33 444.405 1193.07 446.672Z" fill="#0f766e"/>
<path d="M1237.73 432.139C1238.13 433.472 1245.73 450.272 1254.8 469.472L1271.07 504.539H1280.93H1290.8L1295.47 494.139C1298.13 488.539 1305.6 472.405 1312.13 458.405C1318.67 444.405 1324 432.272 1324 431.339C1324 430.272 1321.47 429.872 1315.33 430.139L1306.53 430.539L1302.13 440.539C1299.73 446.005 1294 459.205 1289.33 469.739C1282.67 484.672 1280.53 488.405 1279.73 486.405C1279.2 485.072 1273.33 471.872 1266.8 457.205L1254.93 430.539L1246 430.139C1237.87 429.739 1237.07 430.005 1237.73 432.139Z" fill="#0f766e"/>
<path d="M403.6 504.005C403.067 504.539 402.667 507.339 402.667 510.139V515.205H438.8H474.8L474.4 509.472L474 503.872L439.333 503.472C420.133 503.205 404.133 503.472 403.6 504.005Z" fill="#0f766e"/>
<path d="M237.867 587.205C232.933 589.205 230.667 593.872 230.667 602.272C230.667 609.072 231.2 610.539 234.533 614.005C237.733 617.072 239.6 617.872 244.533 617.872C251.733 617.872 256.533 615.872 259.333 611.605C261.333 608.672 261.2 608.539 258.4 608.539C256.667 608.539 254.133 609.472 252.8 610.539C251.333 611.605 247.867 612.539 245.2 612.539C239.067 612.539 236 608.939 236 601.872C236 592.139 245.467 587.605 252.667 593.739C255.333 596.139 260 596.139 260 593.739C260 592.939 258.533 590.939 256.667 589.205C254.133 586.539 252.133 585.872 247.067 586.005C243.6 586.005 239.333 586.539 237.867 587.205Z" fill="#0f766e"/>
<path d="M282.533 587.872C273.867 592.539 274 611.339 282.8 615.872C288.667 618.939 297.867 618.405 302.133 614.672C305.333 612.005 305.867 610.405 306.4 602.805C306.933 594.405 306.8 593.739 302.933 589.872C299.467 586.539 297.867 585.872 292.4 585.872C288.933 586.005 284.4 586.805 282.533 587.872ZM299.333 594.272C302 598.005 301.867 605.872 299.2 609.605C297.733 611.739 295.867 612.539 292.4 612.539C285.467 612.539 282.667 609.472 282.667 602.005C282.667 594.539 283.733 592.672 288.8 591.339C293.867 590.005 296.933 590.939 299.333 594.272Z" fill="#0f766e"/>
<path d="M325.333 601.872V617.872H335.067C347.333 617.872 352.133 615.205 354.533 607.339C355.333 604.272 355.733 600.405 355.333 598.805C352.533 588.672 348 585.872 334.667 585.872H325.333V601.872ZM346.667 593.872C348.4 595.605 349.333 598.272 349.333 601.739C349.333 608.405 344.667 612.539 337.2 612.539H332V601.872V591.205H338C342.267 591.205 344.8 592.005 346.667 593.872Z" fill="#0f766e"/>
<path d="M373.333 601.872V617.872H386C397.733 617.872 398.667 617.739 398.667 615.205C398.667 612.805 397.733 612.539 389.333 612.539H380V608.539V604.539H388.667C396.4 604.539 397.333 604.272 397.333 601.872C397.333 599.472 396.4 599.205 388 599.205H378.533L379.067 595.472C379.6 592.005 379.867 591.872 389.067 591.472C397.6 591.072 398.667 590.805 398.667 588.539C398.667 586.139 397.733 585.872 386 585.872H373.333V601.872Z" fill="#0f766e"/>
<path d="M532 601.872V617.872H542.4C554.4 617.872 558.667 615.872 558.667 610.139C558.667 605.872 557.6 604.139 554.133 602.272C551.6 600.939 551.733 600.805 554.4 600.005C556.667 599.205 557.333 598.005 557.333 594.539C557.333 587.872 553.6 585.872 541.733 585.872H532V601.872ZM551.467 593.205C552.8 596.672 549.333 599.205 543.2 599.205C537.6 599.205 537.333 599.072 537.333 595.205C537.333 591.339 537.467 591.205 544 591.205C548.8 591.205 550.933 591.739 551.467 593.205ZM551.733 606.405C555.067 609.739 551.6 612.539 543.867 612.539C537.6 612.539 537.333 612.405 537.333 608.805C537.333 606.672 537.733 604.539 538.4 604.005C539.867 602.405 549.467 604.139 551.733 606.405Z" fill="#0f766e"/>
<path d="M577.6 599.339C578.133 615.605 579.733 617.872 591.2 617.872C601.867 617.872 604 614.939 604.933 598.672L605.733 585.872H602.133H598.533L599.467 595.872C600.533 608.139 598.533 612.539 591.6 612.539C584.133 612.539 583.333 611.205 582.933 597.872C582.4 586.939 582.133 585.872 579.733 585.872C577.2 585.872 577.067 586.672 577.6 599.339Z" fill="#0f766e"/>
<path d="M622.667 601.872C622.667 616.939 622.8 617.872 625.333 617.872C627.867 617.872 628 616.939 628 601.872C628 586.805 627.867 585.872 625.333 585.872C622.8 585.872 622.667 586.805 622.667 601.872Z" fill="#0f766e"/>
<path d="M648 601.739V617.872H659.2C669.2 617.872 670.4 617.605 671.067 615.205C671.733 612.672 671.067 612.539 662.4 612.539H653.2L653.467 599.472C653.733 587.205 653.6 586.539 650.8 586.139C648.133 585.739 648 586.139 648 601.739Z" fill="#0f766e"/>
<path d="M690.667 602.005V618.139L701.333 617.605C710.667 617.205 712.4 616.805 715.467 613.739C717.867 611.339 719.2 608.272 719.6 604.405C720.933 591.872 714.533 585.872 699.733 585.872H690.667V602.005ZM708.667 592.005C712 593.339 714.933 600.272 714 604.672C712.8 609.872 708.667 612.539 701.733 612.539H696V601.872V591.205H701.2C704.133 591.205 707.467 591.605 708.667 592.005Z" fill="#0f766e"/>
<path d="M851.467 588.672C846.933 592.139 846.8 598.272 851.067 601.072C852.667 602.139 857.067 603.739 860.667 604.672C868.8 606.539 870.267 607.739 868 610.539C865.867 613.205 856.267 613.205 853.333 610.539C851.067 608.539 846.667 609.072 846.667 611.205C846.667 611.872 848.267 613.605 850.133 615.072C855.467 619.339 866.933 618.939 871.333 614.539C878 608.005 874.133 601.739 862.267 599.205C852.267 597.205 851.067 593.205 859.733 590.539C861.733 590.005 864 590.405 866 591.739C870 594.405 873.333 594.539 873.333 592.139C873.333 585.739 858.133 583.339 851.467 588.672Z" fill="#0f766e"/>
<path d="M897.333 587.605C892.8 589.872 890.667 594.672 890.667 602.939C890.667 609.072 891.2 610.672 894.533 614.005C897.733 617.072 899.6 617.872 904.533 617.872C912.667 617.872 916.8 616.005 919.333 611.339C923.333 603.472 920.933 590.539 914.8 587.205C911.2 585.339 901.333 585.605 897.333 587.605ZM914.4 595.339C916.667 599.472 915.467 608.672 912.533 610.805C909.467 613.072 900.667 613.072 898.8 610.805C896.267 607.739 895.6 600.805 897.333 596.539C900.267 589.472 910.8 588.672 914.4 595.339Z" fill="#0f766e"/>
<path d="M938.667 601.872V617.872H950.667C961.733 617.872 962.667 617.739 962.667 615.205C962.667 612.805 961.733 612.539 953.333 612.539H944V599.205C944 586.805 943.867 585.872 941.333 585.872C938.8 585.872 938.667 586.805 938.667 601.872Z" fill="#0f766e"/>
<path d="M973.333 586.139C973.333 586.405 976 593.472 979.2 601.872C984.667 616.139 985.333 617.205 988.933 617.605C992.533 618.005 992.933 617.472 998.667 602.939C1002 594.672 1004.93 587.472 1005.07 586.939C1005.33 586.272 1004.13 585.872 1002.27 585.872C999.333 585.872 998.533 587.205 994.533 597.872C992.133 604.405 989.733 609.872 989.333 609.872C988.933 609.872 986.533 604.672 983.867 598.139C980.133 589.072 978.533 586.405 976.267 586.139C974.667 585.872 973.333 585.872 973.333 586.139Z" fill="#0f766e"/>
<path d="M1021.33 601.872V617.872H1033.33C1044.4 617.872 1045.33 617.739 1045.33 615.205C1045.33 612.805 1044.4 612.539 1036 612.539H1026.67V608.539C1026.67 604.539 1026.8 604.539 1034 604.539C1040.4 604.539 1041.33 604.272 1041.33 601.872C1041.33 599.472 1040.4 599.205 1034 599.205C1026.8 599.205 1026.67 599.205 1026.67 595.205V591.205H1036C1044.4 591.205 1045.33 590.939 1045.33 588.539C1045.33 586.005 1044.4 585.872 1033.33 585.872H1021.33V601.872Z" fill="#0f766e"/>
<path d="M454.267 595.339C449.067 598.405 448.8 606.805 453.867 610.139C458.667 613.472 466.667 608.672 466.667 602.539C466.667 598.672 462.4 593.872 459.067 593.872C457.733 593.872 455.6 594.539 454.267 595.339Z" fill="#0f766e"/>
<path d="M776 597.472C769.333 606.005 780.267 616.272 788 608.539C793.2 603.339 789.467 593.872 782.133 593.872C780.133 593.872 777.733 595.339 776 597.472Z" fill="#0f766e"/>
<path d="M661.733 692.005C656.133 704.939 634.667 756.672 634.667 757.205C634.667 757.472 636.667 758.005 639.067 758.539C641.333 759.072 644.267 759.739 645.467 760.005C647.2 760.539 649.467 756.539 655.733 741.605C668.667 710.805 677.467 688.272 676.8 687.605C676.4 687.205 673.467 686.539 670.267 686.272L664.4 685.605L661.733 692.005Z" fill="#0f766e"/>
<path d="M599.333 708.939C570.267 722.272 571.733 721.339 572.267 726.139C572.667 729.872 573.733 730.672 590 738.139C624.8 754.139 623.6 753.872 624.267 744.539L624.667 740.005L609.067 733.205C600.4 729.605 593.333 726.139 593.333 725.739C593.333 725.339 600.133 722.139 608.4 718.539C616.533 714.939 623.733 711.739 624.267 711.339C625.733 710.139 623.867 699.205 622.133 699.205C621.333 699.205 611.067 703.605 599.333 708.939Z" fill="#0f766e"/>
<path d="M695.733 704.805C695.333 708.005 695.467 710.939 695.867 711.339C696.267 711.739 703.733 715.072 712.267 718.672C720.933 722.272 728 725.472 728 725.872C728 726.272 720.933 729.605 712.267 733.339C697.067 740.139 696.667 740.405 696.267 744.672C695.6 753.739 696.4 753.739 722.8 741.605L747.333 730.539L747.733 725.472C748 722.805 747.6 720.539 746.933 720.539C746.267 720.539 740 717.872 733.2 714.672C715.867 706.672 698.8 699.205 697.467 699.205C696.8 699.205 696 701.739 695.733 704.805Z" fill="#0f766e"/>
<path d="M148.533 722.405C148.133 723.472 148 725.472 148.267 726.805C148.667 729.072 156.8 729.205 343.733 729.605L538.8 729.872L538.4 725.605L538 721.205L343.6 720.805C175.2 720.539 149.2 720.805 148.533 722.405Z" fill="#0f766e"/>
<path d="M783.2 722.405C782.8 723.472 782.667 725.472 782.933 726.805C783.333 729.072 791.467 729.205 979.733 729.605L1176 729.872V725.205V720.539H980C810.4 720.539 783.867 720.805 783.2 722.405Z" fill="#0f766e"/>
</svg>
