<svg xmlns="http://www.w3.org/2000/svg" viewBox="0 0 64 64" role="img" aria-label="Alex Manuylov logo">
  <defs>
    <linearGradient id="bg" x1="8" x2="56" y1="6" y2="58" gradientUnits="userSpaceOnUse">
      <stop stop-color="#111827" />
      <stop offset="1" stop-color="#050914" />
    </linearGradient>
  </defs>
  <rect width="64" height="64" rx="16" fill="url(#bg)" />
  <g transform="translate(4 18.3) scale(0.08235)" fill="#5eead4">
    <path d="M195.655 24.2667C187.255 37.6 174.589 57.4667 167.522 68.5334C160.455 79.4667 147.789 99.3334 139.255 112.533C130.855 125.733 106.189 164.133 84.5887 197.867C62.9887 231.6 38.722 269.333 30.8554 281.867C22.8554 294.267 12.8554 309.733 8.58869 316.267C4.32202 322.667 0.455351 328.8 0.0553513 329.867C-0.611315 331.6 4.32202 331.867 38.322 331.867H77.522L81.3887 324.8C94.5887 301.067 165.789 176.267 177.522 156.533C180.589 151.333 190.455 134.133 199.522 118.133C212.455 95.2 216.322 89.4667 217.522 90.8C218.455 91.7334 233.389 110.8 250.855 133.2C292.589 186.4 360.455 271.467 362.189 272.533C362.855 272.933 363.522 273.867 363.522 274.667C363.522 275.333 324.722 275.867 262.322 275.867H161.255L155.522 284C152.455 288.4 146.455 297.067 142.322 303.067C138.189 309.2 132.189 317.867 129.122 322.4C125.922 327.067 123.522 330.933 123.789 331.333C124.189 331.6 204.589 331.733 302.589 331.6L480.722 331.2L457.922 303.867C445.389 288.8 425.522 264.8 413.655 250.533C363.389 190.133 294.589 104.8 234.855 28.8C222.455 12.9333 211.922 1.52439e-05 211.522 1.52439e-05C211.122 1.52439e-05 204.055 10.9333 195.655 24.2667Z" />
    <path d="M269.122 3.46667C270.189 4.80001 275.255 10.6667 280.322 16.6667C330.455 75.2 498.189 262 509.789 272.267C512.455 274.533 512.722 274.4 521.655 264.933C532.989 252.8 587.789 191.467 615.522 159.467L636.189 135.6L636.589 233.733L636.855 331.867H658.189H679.522V178.267V24.6667L627.255 76.6667C598.455 105.333 560.722 142.667 543.522 159.6L512.189 190.4L417.655 95.8667L323.122 1.20001H295.122C268.589 1.20001 267.255 1.33334 269.122 3.46667Z" />
  </g>
</svg>
